<?xml version="1.0" standalone="no"?>
<!DOCTYPE svg PUBLIC "-//W3C//DTD SVG 20010904//EN"
 "http://www.w3.org/TR/2001/REC-SVG-20010904/DTD/svg10.dtd">
<svg version="1.0" xmlns="http://www.w3.org/2000/svg"
 width="700.000000pt" height="700.000000pt" viewBox="0 0 700.000000 700.000000"
 preserveAspectRatio="xMidYMid meet">
<metadata>
Created by potrace 1.14, written by Peter Selinger 2001-2017
</metadata>
<g transform="translate(0.000000,700.000000) scale(0.100000,-0.100000)"
fill="#000000" stroke="none">
<path d="M3435 6963 c-53 -31 -643 -373 -735 -425 -19 -11 -183 -106 -365
-211 -181 -105 -442 -255 -580 -335 -137 -79 -295 -170 -350 -202 -123 -72
-667 -385 -715 -412 -19 -11 -77 -45 -128 -74 l-92 -55 2 -1751 3 -1751 117
-68 c113 -65 292 -169 722 -417 280 -161 299 -172 406 -234 108 -62 719 -416
853 -492 48 -28 96 -55 105 -61 30 -17 246 -142 282 -163 19 -11 149 -85 288
-166 l253 -146 67 39 c37 21 139 80 227 131 88 51 230 133 315 182 85 50 173
100 195 112 22 13 90 52 151 88 61 35 117 68 125 71 8 4 35 20 60 35 25 15
110 64 190 110 79 46 151 87 159 92 122 72 153 90 170 95 11 3 20 11 20 16 0
5 4 9 9 9 5 0 208 115 452 257 244 141 462 266 485 278 22 13 59 35 82 49 23
14 44 26 47 26 2 0 29 16 59 35 30 19 57 35 60 35 3 0 39 21 81 46 l75 45 0
1755 c0 982 -4 1754 -9 1754 -4 0 -128 70 -275 155 -147 85 -271 155 -277 155
-5 0 -9 5 -9 10 0 6 -4 10 -10 10 -5 0 -55 27 -111 60 -55 33 -102 60 -104 60
-2 0 -36 19 -77 43 -40 24 -93 55 -118 69 -25 14 -85 49 -135 78 -49 29 -103
60 -120 70 -16 9 -102 59 -190 110 -88 51 -176 101 -195 112 -19 11 -51 29
-70 40 -73 42 -546 316 -580 335 -19 11 -181 105 -360 208 -379 219 -390 225
-393 225 -1 -1 -29 -17 -62 -37z"/>
</g>
</svg>
